<svg width="1500" height="1500" viewBox="0 0 1500 1500" fill="none" xmlns="http://www.w3.org/2000/svg">
<g id="Official logo trans">
<g id="Group 24">
<g id="Group 22">
<g id="Group 26">
<path id="Ellipse 4 (Stroke)" fill-rule="evenodd" clip-rule="evenodd" d="M764.692 1132.54C976.109 1115.81 1133.94 930.867 1117.21 719.45C1100.49 508.033 915.542 350.204 704.126 366.929C492.709 383.655 334.88 568.6 351.605 780.017C368.33 991.434 553.276 1149.26 764.692 1132.54ZM1186.99 713.93C1206.77 963.886 1020.17 1182.55 770.213 1202.32C520.256 1222.09 301.597 1035.49 281.823 785.537C262.049 535.581 448.649 316.921 698.605 297.147C948.561 277.374 1167.22 463.973 1186.99 713.93Z" fill="url(#paint0_linear_101:14)"/>
<path id="Vector (Stroke)" fill-rule="evenodd" clip-rule="evenodd" d="M784.315 841.908C789.488 822.006 794.899 796.665 800.479 765.559C809.061 716.186 817.891 677.324 827.235 650.209C831.829 636.88 837.249 624.261 844.084 614.326C849.863 605.924 863.291 589.886 885.766 590.088C908.119 590.289 921.291 606.424 926.96 614.851C933.687 624.851 939.006 637.521 943.505 650.924C952.653 678.18 961.212 717.18 969.454 766.702C974.53 796.223 979.523 820.151 984.35 838.839C989.517 820.221 994.945 796.356 1000.56 766.888C1003.7 750.379 1018.13 738.436 1034.94 738.436L1330.5 738.438C1349.83 738.438 1365.5 754.108 1365.5 773.438C1365.5 792.768 1349.83 808.438 1330.5 808.438L1063.61 808.436C1056.57 841.645 1049.35 868.686 1041.81 888.925C1037.09 901.582 1031.5 913.694 1024.43 923.26C1018.18 931.725 1004.78 946.172 983.387 945.98C961.995 945.787 948.853 931.102 942.755 922.526C935.864 912.834 930.487 900.624 926 887.884C916.874 861.972 908.46 825.068 900.449 778.467C900.439 778.405 900.428 778.343 900.418 778.281C895.204 746.942 890.088 721.413 885.142 701.367C880.088 721.258 874.828 746.57 869.431 777.631C869.425 777.664 869.419 777.697 869.413 777.731L869.398 777.817C860.537 827.229 851.487 866.11 841.991 893.227C837.325 906.552 831.842 919.148 824.972 929.054C819.172 937.417 805.729 953.384 783.315 953.182C760.901 952.981 747.746 936.775 742.098 928.309C735.407 918.281 730.151 905.589 725.725 892.183C716.765 865.044 708.457 826.275 700.523 777.085C696.227 756.463 691.953 740.457 687.886 728.525C682.094 740.84 675.595 757.726 668.519 779.794C659.725 811.914 650.337 838.407 639.908 857.584C634.677 867.202 628.236 876.775 620.039 884.317C611.679 892.009 599.246 899.526 583.29 899.383C567.334 899.239 555.037 891.5 546.817 883.659C538.756 875.971 532.489 866.284 527.432 856.573C517.271 837.063 508.302 810.144 500.033 777.537C499.916 777.075 499.809 776.611 499.71 776.144C493.211 745.27 487.04 720.282 481.264 700.826C477.043 719.687 472.797 743.628 468.613 772.977C466.153 790.223 451.384 803.036 433.963 803.036L127.498 803.036C108.168 803.036 92.4975 787.366 92.4976 768.036C92.4976 748.706 108.168 733.036 127.498 733.036L403.909 733.036C409.439 699.403 415.412 671.994 421.992 651.431C426.135 638.484 431.208 625.992 437.928 616.059C443.859 607.292 457.188 591.737 479.429 591.937C500.795 592.129 514.047 606.916 520.105 615.148C527.173 624.751 532.966 636.968 537.975 649.937C548.1 676.153 558.054 713.582 568.059 761.014C573.693 783.141 579.099 800.014 584.072 812.275C589.318 799.981 595.091 782.988 601.189 760.631C601.322 760.147 601.464 759.665 601.617 759.187C611.966 726.802 622.542 700.256 633.699 681.179C639.25 671.687 645.902 662.364 654.08 655.057C662.295 647.718 674.651 640.193 690.544 640.336C706.805 640.482 719.172 648.561 727.295 656.78C735.166 664.747 741.025 674.681 745.601 684.443C754.807 704.083 762.477 731.079 769.224 763.638C769.33 764.151 769.425 764.666 769.508 765.182C774.534 796.429 779.494 821.895 784.315 841.908ZM767.134 889.59C767.133 889.589 767.157 889.558 767.204 889.503C767.158 889.564 767.134 889.591 767.134 889.59ZM800.567 889.803C800.614 889.859 800.636 889.89 800.636 889.891C800.635 889.892 800.612 889.864 800.567 889.803ZM496.32 654.724C496.32 654.733 496.234 654.856 496.058 655.064C496.231 654.818 496.319 654.714 496.32 654.724ZM463.423 656.245C463.383 656.202 463.363 656.178 463.362 656.176C463.361 656.173 463.382 656.196 463.423 656.245ZM902.059 653.586C902.06 653.587 902.037 653.618 901.988 653.675C902.034 653.614 902.058 653.586 902.059 653.586ZM868.624 653.56C868.577 653.505 868.555 653.475 868.555 653.474C868.556 653.473 868.579 653.501 868.624 653.56ZM967.629 882.287C967.628 882.275 967.732 882.141 967.941 881.92C967.734 882.188 967.629 882.299 967.629 882.287ZM999.982 882.208C1000.19 882.433 1000.29 882.569 1000.29 882.58C1000.29 882.592 1000.18 882.479 999.982 882.208Z" fill="#013EFF"/>
</g>
</g>
</g>
</g>
<defs>
<linearGradient id="paint0_linear_101:14" x1="284.001" y1="770.994" x2="1219" y2="782.494" gradientUnits="userSpaceOnUse">
<stop stop-color="#013EFF"/>
<stop offset="1" stop-color="#DB00FF"/>
</linearGradient>
</defs>
</svg>
